  0
SECTION
  2
HEADER
  9
$ACADVER
  1
AC1014
  9
$HANDSEED
  5
FFFF
  9
$MEASUREMENT
 70
     1
  0
ENDSEC
  0
SECTION
  2
TABLES
  0
TABLE
  2
VPORT
  5
8
330
0
100
AcDbSymbolTable
 70
     4
  0
VPORT
  5
2E
330
8
100
AcDbSymbolTableRecord
100
AcDbViewportTableRecord
  2
*ACTIVE
 70
     0
 10
0.0
 20
0.0
 11
1.0
 21
1.0
 12
210.0
 22
148.5
 13
0.0
 23
0.0
 14
10.0
 24
10.0
 15
10.0
 25
10.0
 16
0.0
 26
0.0
 36
1.0
 17
0.0
 27
0.0
 37
0.0
 40
341.0
 41
1.24
 42
50.0
 43
0.0
 44
0.0
 50
0.0
 51
0.0
 71
     0
 72
   100
 73
     1
 74
     3
 75
     0
 76
     0
 77
     0
 78
     0
  0
ENDTAB
  0
TABLE
  2
LTYPE
  5
5
330
0
100
AcDbSymbolTable
 70
     1
  0
LTYPE
  5
14
330
5
100
AcDbSymbolTableRecord
100
AcDbLinetypeTableRecord
  2
BYBLOCK
 70
     0
  3

 72
    65
 73
     0
 40
0.0
  0
LTYPE
  5
15
330
5
100
AcDbSymbolTableRecord
100
AcDbLinetypeTableRecord
  2
BYLAYER
 70
     0
  3

 72
    65
 73
     0
 40
0.0
  0
LTYPE
  5
16
330
5
100
AcDbSymbolTableRecord
100
AcDbLinetypeTableRecord
  2
CONTINUOUS
 70
     0
  3
Solid line
 72
    65
 73
     0
 40
0.0
  0
ENDTAB
  0
TABLE
  2
LAYER
  5
2
100
AcDbSymbolTable
 70
2
  0
LAYER
  5
50
100
AcDbSymbolTableRecord
100
AcDbLayerTableRecord
  2
0
 70
0
  6
CONTINUOUS
  0
LAYER
  5
51
100
AcDbSymbolTableRecord
100
AcDbLayerTableRecord
  2
Layer_1
 70
0
  6
CONTINUOUS
  0
ENDTAB
  0
TABLE
  2
STYLE
  5
3
330
0
100
AcDbSymbolTable
 70
     1
  0
STYLE
  5
11
330
3
100
AcDbSymbolTableRecord
100
AcDbTextStyleTableRecord
  2
STANDARD
 70
     0
 40
0.0
 41
1.0
 50
0.0
 71
     0
 42
2.5
  3
txt
  4

  0
ENDTAB
  0
TABLE
  2
VIEW
  5
6
330
0
100
AcDbSymbolTable
 70
     0
  0
ENDTAB
  0
TABLE
  2
UCS
  5
7
330
0
100
AcDbSymbolTable
 70
     0
  0
ENDTAB
  0
TABLE
  2
APPID
  5
9
330
0
100
AcDbSymbolTable
 70
     2
  0
APPID
  5
12
330
9
100
AcDbSymbolTableRecord
100
AcDbRegAppTableRecord
  2
ACAD
 70
     0
  0
ENDTAB
  0
TABLE
  2
DIMSTYLE
  5
A
330
0
100
AcDbSymbolTable
 70
     1
  0
DIMSTYLE
105
27
330
A
100
AcDbSymbolTableRecord
100
AcDbDimStyleTableRecord
  2
ISO-25
 70
     0
  3

  4

  5

  6

  7

 40
1.0
 41
2.5
 42
0.625
 43
3.75
 44
1.25
 45
0.0
 46
0.0
 47
0.0
 48
0.0
140
2.5
141
2.5
142
0.0
143
0.03937007874016
144
1.0
145
0.0
146
1.0
147
0.625
 71
     0
 72
     0
 73
     0
 74
     0
 75
     0
 76
     0
 77
     1
 78
     8
170
     0
171
     3
172
     1
173
     0
174
     0
175
     0
176
     0
177
     0
178
     0
270
     2
271
     2
272
     2
273
     2
274
     3
340
11
275
     0
280
     0
281
     0
282
     0
283
     0
284
     8
285
     0
286
     0
287
     3
288
     0
  0
ENDTAB
  0
TABLE
  2
BLOCK_RECORD
  5
1
330
0
100
AcDbSymbolTable
 70
     1
  0
BLOCK_RECORD
  5
1F
330
1
100
AcDbSymbolTableRecord
100
AcDbBlockTableRecord
  2
*MODEL_SPACE
  0
BLOCK_RECORD
  5
1B
330
1
100
AcDbSymbolTableRecord
100
AcDbBlockTableRecord
  2
*PAPER_SPACE
  0
ENDTAB
  0
ENDSEC
  0
SECTION
  2
BLOCKS
  0
BLOCK
  5
20
330
1F
100
AcDbEntity
  8
0
100
AcDbBlockBegin
  2
*MODEL_SPACE
 70
     0
 10
0.0
 20
0.0
 30
0.0
  3
*MODEL_SPACE
  1

  0
ENDBLK
  5
21
330
1F
100
AcDbEntity
  8
0
100
AcDbBlockEnd
  0
BLOCK
  5
1C
330
1B
100
AcDbEntity
 67
     1
  8
0
100
AcDbBlockBegin
  2
*PAPER_SPACE
  1

  0
ENDBLK
  5
1D
330
1B
100
AcDbEntity
 67
     1
  8
0
100
AcDbBlockEnd
  0
ENDSEC
  0
SECTION
  2
ENTITIES
  0
LWPOLYLINE
  5
100
100
AcDbEntity
  8
Layer_1
 62
7
100
AcDbPolyline
 90
26
 70
1
 10
140.884563
 20
220.000188
 30
0.0
 10
140.884563
 20
214.888768
 30
0.0
 10
139.719293
 20
214.888768
 30
0.0
 10
139.083189
 20
214.888768
 30
0.0
 10
137.901384
 20
214.888768
 30
0.0
 10
137.901384
 20
209.888693
 30
0.0
 10
139.083189
 20
209.888693
 30
0.0
 10
139.719293
 20
209.888693
 30
0.0
 10
140.884563
 20
209.888693
 30
0.0
 10
140.884563
 20
204.999964
 30
0.0
 10
142.093927
 20
204.999964
 30
0.0
 10
161.674748
 20
204.999964
 30
0.0
 10
162.884666
 20
204.999964
 30
0.0
 10
162.884666
 20
209.888693
 30
0.0
 10
164.008043
 20
209.888693
 30
0.0
 10
164.644146
 20
209.888693
 30
0.0
 10
165.825952
 20
209.888693
 30
0.0
 10
165.825952
 20
214.888768
 30
0.0
 10
164.644146
 20
214.888768
 30
0.0
 10
164.008043
 20
214.888768
 30
0.0
 10
162.884666
 20
214.888768
 30
0.0
 10
162.884666
 20
220.000188
 30
0.0
 10
161.674748
 20
220.000188
 30
0.0
 10
142.093927
 20
220.000188
 30
0.0
 10
140.884563
 20
220.000188
 30
0.0
 10
140.884563
 20
220.000188
 30
0.0
  0
LWPOLYLINE
  5
101
100
AcDbEntity
  8
Layer_1
 62
7
100
AcDbPolyline
 90
5
 70
1
 10
35.943879
 20
199.690212
 30
0.0
 10
32.943879
 20
199.690212
 30
0.0
 10
32.943879
 20
204.690188
 30
0.0
 10
35.943879
 20
204.690188
 30
0.0
 10
35.943879
 20
199.690212
 30
0.0
  0
SPLINE
  5
102
100
AcDbEntity
  8
Layer_1
 62
7
100
AcDbSpline
 70
8
 71
3
 72
8
 73
4
 74
0
 40
0
 40
0
 40
0
 40
0
 40
1
 40
1
 40
1
 40
1
 10
54.637726
 20
207.015567
 30
0.0
 10
52.647765
 20
207.014369
 30
0.0
 10
50.847949
 20
205.833254
 30
0.0
 10
50.054922
 20
204.008136
 30
0.0
  0
LWPOLYLINE
  5
103
100
AcDbEntity
  8
Layer_1
 62
7
100
AcDbPolyline
 90
5
 70
1
 10
107.142926
 20
199.728899
 30
0.0
 10
104.142926
 20
199.728899
 30
0.0
 10
104.142926
 20
204.728875
 30
0.0
 10
107.142926
 20
204.728875
 30
0.0
 10
107.142926
 20
199.728899
 30
0.0
  0
SPLINE
  5
104
100
AcDbEntity
  8
Layer_1
 62
7
100
AcDbSpline
 70
8
 71
3
 72
8
 73
4
 74
0
 40
0
 40
0
 40
0
 40
0
 40
1
 40
1
 40
1
 40
1
 10
50.065395
 20
200.007966
 30
0.0
 10
50.861399
 20
198.192153
 30
0.0
 10
52.655103
 20
197.018191
 30
0.0
 10
54.637726
 20
197.015420
 30
0.0
  0
SPLINE
  5
105
100
AcDbEntity
  8
Layer_1
 62
7
100
AcDbSpline
 70
8
 71
3
 72
8
 73
4
 74
0
 40
0
 40
0
 40
0
 40
0
 40
1
 40
1
 40
1
 40
1
 10
54.637726
 20
197.015420
 30
0.0
 10
55.963833
 20
197.015400
 30
0.0
 10
57.235633
 20
197.542186
 30
0.0
 10
58.173333
 20
198.479885
 30
0.0
  0
SPLINE
  5
106
100
AcDbEntity
  8
Layer_1
 62
7
100
AcDbSpline
 70
8
 71
3
 72
8
 73
4
 74
0
 40
0
 40
0
 40
0
 40
0
 40
1
 40
1
 40
1
 40
1
 10
58.173333
 20
198.479885
 30
0.0
 10
59.111033
 20
199.417585
 30
0.0
 10
59.637819
 20
200.689384
 30
0.0
 10
59.637800
 20
202.015492
 30
0.0
  0
SPLINE
  5
107
100
AcDbEntity
  8
Layer_1
 62
7
100
AcDbSpline
 70
8
 71
3
 72
8
 73
4
 74
0
 40
0
 40
0
 40
0
 40
0
 40
1
 40
1
 40
1
 40
1
 10
59.637800
 20
202.015492
 30
0.0
 10
59.637820
 20
203.341600
 30
0.0
 10
59.111034
 20
204.613400
 30
0.0
 10
58.173334
 20
205.551101
 30
0.0
  0
SPLINE
  5
108
100
AcDbEntity
  8
Layer_1
 62
7
100
AcDbSpline
 70
8
 71
3
 72
8
 73
4
 74
0
 40
0
 40
0
 40
0
 40
0
 40
1
 40
1
 40
1
 40
1
 10
58.173334
 20
205.551101
 30
0.0
 10
57.235634
 20
206.488801
 30
0.0
 10
55.963834
 20
207.015587
 30
0.0
 10
54.637726
 20
207.015567
 30
0.0
  0
LWPOLYLINE
  5
109
100
AcDbEntity
  8
Layer_1
 62
7
100
AcDbPolyline
 90
6
 70
1
 10
50.054922
 20
204.008136
 30
0.0
 10
40.447793
 20
204.008136
 30
0.0
 10
40.447793
 20
202.826331
 30
0.0
 10
40.447793
 20
201.190322
 30
0.0
 10
40.447793
 20
200.007966
 30
0.0
 10
50.065395
 20
200.007966
 30
0.0
  0
LWPOLYLINE
  5
10a
100
AcDbEntity
  8
Layer_1
 62
7
100
AcDbPolyline
 90
2
 70
1
 10
54.637726
 20
207.015567
 30
0.0
 10
54.637726
 20
207.015567
 30
0.0
  0
LWPOLYLINE
  5
10b
100
AcDbEntity
  8
Layer_1
 62
7
100
AcDbPolyline
 90
5
 70
1
 10
55.244645
 20
171.722366
 30
0.0
 10
53.744645
 20
169.124290
 30
0.0
 10
49.414539
 20
171.624277
 30
0.0
 10
50.914539
 20
174.222353
 30
0.0
 10
55.244645
 20
171.722366
 30
0.0
  0
LWPOLYLINE
  5
10c
100
AcDbEntity
  8
Layer_1
 62
7
100
AcDbPolyline
 90
5
 70
1
 10
90.488784
 20
232.797096
 30
0.0
 10
88.988784
 20
230.199020
 30
0.0
 10
84.658679
 20
232.699007
 30
0.0
 10
86.158679
 20
235.297083
 30
0.0
 10
90.488784
 20
232.797096
 30
0.0
  0
LWPOLYLINE
  5
10d
100
AcDbEntity
  8
Layer_1
 62
7
100
AcDbPolyline
 90
5
 70
1
 10
51.033594
 20
230.104544
 30
0.0
 10
49.533594
 20
232.702620
 30
0.0
 10
53.863699
 20
235.202608
 30
0.0
 10
55.363699
 20
232.604531
 30
0.0
 10
51.033594
 20
230.104544
 30
0.0
  0
LWPOLYLINE
  5
10e
100
AcDbEntity
  8
Layer_1
 62
7
100
AcDbPolyline
 90
5
 70
1
 10
86.119935
 20
169.127331
 30
0.0
 10
84.619935
 20
171.725407
 30
0.0
 10
88.950041
 20
174.225394
 30
0.0
 10
90.450041
 20
171.627318
 30
0.0
 10
86.119935
 20
169.127331
 30
0.0
  0
LWPOLYLINE
  5
10f
100
AcDbEntity
  8
Layer_1
 62
7
100
AcDbPolyline
 90
5
 70
1
 10
35.943879
 20
107.121324
 30
0.0
 10
32.943879
 20
107.121324
 30
0.0
 10
32.943879
 20
112.121299
 30
0.0
 10
35.943879
 20
112.121299
 30
0.0
 10
35.943879
 20
107.121324
 30
0.0
  0
LWPOLYLINE
  5
110
100
AcDbEntity
  8
Layer_1
 62
7
100
AcDbPolyline
 90
5
 70
1
 10
107.142926
 20
107.160011
 30
0.0
 10
104.142926
 20
107.160011
 30
0.0
 10
104.142926
 20
112.159986
 30
0.0
 10
107.142926
 20
112.159986
 30
0.0
 10
107.142926
 20
107.160011
 30
0.0
  0
LWPOLYLINE
  5
111
100
AcDbEntity
  8
Layer_1
 62
7
100
AcDbPolyline
 90
5
 70
1
 10
55.244540
 20
79.153278
 30
0.0
 10
53.744540
 20
76.555202
 30
0.0
 10
49.414434
 20
79.055189
 30
0.0
 10
50.914434
 20
81.653266
 30
0.0
 10
55.244540
 20
79.153278
 30
0.0
  0
LWPOLYLINE
  5
112
100
AcDbEntity
  8
Layer_1
 62
7
100
AcDbPolyline
 90
5
 70
1
 10
90.488722
 20
140.228100
 30
0.0
 10
88.988722
 20
137.630024
 30
0.0
 10
84.658616
 20
140.130011
 30
0.0
 10
86.158616
 20
142.728087
 30
0.0
 10
90.488722
 20
140.228100
 30
0.0
  0
LWPOLYLINE
  5
113
100
AcDbEntity
  8
Layer_1
 62
7
100
AcDbPolyline
 90
5
 70
1
 10
51.033705
 20
137.535460
 30
0.0
 10
49.533705
 20
140.133536
 30
0.0
 10
53.863811
 20
142.633524
 30
0.0
 10
55.363811
 20
140.035447
 30
0.0
 10
51.033705
 20
137.535460
 30
0.0
  0
LWPOLYLINE
  5
114
100
AcDbEntity
  8
Layer_1
 62
7
100
AcDbPolyline
 90
5
 70
1
 10
86.120047
 20
76.558247
 30
0.0
 10
84.620047
 20
79.156323
 30
0.0
 10
88.950153
 20
81.656310
 30
0.0
 10
90.450153
 20
79.058234
 30
0.0
 10
86.120047
 20
76.558247
 30
0.0
  0
LWPOLYLINE
  5
115
100
AcDbEntity
  8
Layer_1
 62
7
100
AcDbPolyline
 90
26
 70
1
 10
140.884563
 20
199.115743
 30
0.0
 10
140.884563
 20
194.004324
 30
0.0
 10
139.719293
 20
194.004324
 30
0.0
 10
139.083189
 20
194.004324
 30
0.0
 10
137.901384
 20
194.004324
 30
0.0
 10
137.901384
 20
189.004249
 30
0.0
 10
139.083189
 20
189.004249
 30
0.0
 10
139.719293
 20
189.004249
 30
0.0
 10
140.884563
 20
189.004249
 30
0.0
 10
140.884563
 20
184.115519
 30
0.0
 10
142.093927
 20
184.115519
 30
0.0
 10
161.674748
 20
184.115519
 30
0.0
 10
162.884666
 20
184.115519
 30
0.0
 10
162.884666
 20
189.004249
 30
0.0
 10
164.008043
 20
189.004249
 30
0.0
 10
164.644146
 20
189.004249
 30
0.0
 10
165.825952
 20
189.004249
 30
0.0
 10
165.825952
 20
194.004324
 30
0.0
 10
164.644146
 20
194.004324
 30
0.0
 10
164.008043
 20
194.004324
 30
0.0
 10
162.884666
 20
194.004324
 30
0.0
 10
162.884666
 20
199.115743
 30
0.0
 10
161.674748
 20
199.115743
 30
0.0
 10
142.093927
 20
199.115743
 30
0.0
 10
140.884563
 20
199.115743
 30
0.0
 10
140.884563
 20
199.115743
 30
0.0
  0
LWPOLYLINE
  5
116
100
AcDbEntity
  8
Layer_1
 62
7
100
AcDbPolyline
 90
26
 70
1
 10
140.884563
 20
178.795743
 30
0.0
 10
140.884563
 20
173.684324
 30
0.0
 10
139.719293
 20
173.684324
 30
0.0
 10
139.083189
 20
173.684324
 30
0.0
 10
137.901384
 20
173.684324
 30
0.0
 10
137.901384
 20
168.684249
 30
0.0
 10
139.083189
 20
168.684249
 30
0.0
 10
139.719293
 20
168.684249
 30
0.0
 10
140.884563
 20
168.684249
 30
0.0
 10
140.884563
 20
163.795519
 30
0.0
 10
142.093927
 20
163.795519
 30
0.0
 10
161.674748
 20
163.795519
 30
0.0
 10
162.884666
 20
163.795519
 30
0.0
 10
162.884666
 20
168.684249
 30
0.0
 10
164.008043
 20
168.684249
 30
0.0
 10
164.644146
 20
168.684249
 30
0.0
 10
165.825952
 20
168.684249
 30
0.0
 10
165.825952
 20
173.684324
 30
0.0
 10
164.644146
 20
173.684324
 30
0.0
 10
164.008043
 20
173.684324
 30
0.0
 10
162.884666
 20
173.684324
 30
0.0
 10
162.884666
 20
178.795743
 30
0.0
 10
161.674748
 20
178.795743
 30
0.0
 10
142.093927
 20
178.795743
 30
0.0
 10
140.884563
 20
178.795743
 30
0.0
 10
140.884563
 20
178.795743
 30
0.0
  0
LWPOLYLINE
  5
117
100
AcDbEntity
  8
Layer_1
 62
7
100
AcDbPolyline
 90
26
 70
1
 10
140.884563
 20
158.475743
 30
0.0
 10
140.884563
 20
153.364324
 30
0.0
 10
139.719293
 20
153.364324
 30
0.0
 10
139.083189
 20
153.364324
 30
0.0
 10
137.901384
 20
153.364324
 30
0.0
 10
137.901384
 20
148.364249
 30
0.0
 10
139.083189
 20
148.364249
 30
0.0
 10
139.719293
 20
148.364249
 30
0.0
 10
140.884563
 20
148.364249
 30
0.0
 10
140.884563
 20
143.475519
 30
0.0
 10
142.093927
 20
143.475519
 30
0.0
 10
161.674748
 20
143.475519
 30
0.0
 10
162.884666
 20
143.475519
 30
0.0
 10
162.884666
 20
148.364249
 30
0.0
 10
164.008043
 20
148.364249
 30
0.0
 10
164.644146
 20
148.364249
 30
0.0
 10
165.825952
 20
148.364249
 30
0.0
 10
165.825952
 20
153.364324
 30
0.0
 10
164.644146
 20
153.364324
 30
0.0
 10
164.008043
 20
153.364324
 30
0.0
 10
162.884666
 20
153.364324
 30
0.0
 10
162.884666
 20
158.475743
 30
0.0
 10
161.674748
 20
158.475743
 30
0.0
 10
142.093927
 20
158.475743
 30
0.0
 10
140.884563
 20
158.475743
 30
0.0
 10
140.884563
 20
158.475743
 30
0.0
  0
LWPOLYLINE
  5
118
100
AcDbEntity
  8
Layer_1
 62
7
100
AcDbPolyline
 90
26
 70
1
 10
140.884563
 20
137.591299
 30
0.0
 10
140.884563
 20
132.479879
 30
0.0
 10
139.719293
 20
132.479879
 30
0.0
 10
139.083189
 20
132.479879
 30
0.0
 10
137.901384
 20
132.479879
 30
0.0
 10
137.901384
 20
127.479805
 30
0.0
 10
139.083189
 20
127.479805
 30
0.0
 10
139.719293
 20
127.479805
 30
0.0
 10
140.884563
 20
127.479805
 30
0.0
 10
140.884563
 20
122.591075
 30
0.0
 10
142.093927
 20
122.591075
 30
0.0
 10
161.674748
 20
122.591075
 30
0.0
 10
162.884666
 20
122.591075
 30
0.0
 10
162.884666
 20
127.479805
 30
0.0
 10
164.008043
 20
127.479805
 30
0.0
 10
164.644146
 20
127.479805
 30
0.0
 10
165.825952
 20
127.479805
 30
0.0
 10
165.825952
 20
132.479879
 30
0.0
 10
164.644146
 20
132.479879
 30
0.0
 10
164.008043
 20
132.479879
 30
0.0
 10
162.884666
 20
132.479879
 30
0.0
 10
162.884666
 20
137.591299
 30
0.0
 10
161.674748
 20
137.591299
 30
0.0
 10
142.093927
 20
137.591299
 30
0.0
 10
140.884563
 20
137.591299
 30
0.0
 10
140.884563
 20
137.591299
 30
0.0
  0
LWPOLYLINE
  5
119
100
AcDbEntity
  8
Layer_1
 62
7
100
AcDbPolyline
 90
26
 70
1
 10
140.884563
 20
117.271299
 30
0.0
 10
140.884563
 20
112.159879
 30
0.0
 10
139.719293
 20
112.159879
 30
0.0
 10
139.083189
 20
112.159879
 30
0.0
 10
137.901384
 20
112.159879
 30
0.0
 10
137.901384
 20
107.159805
 30
0.0
 10
139.083189
 20
107.159805
 30
0.0
 10
139.719293
 20
107.159805
 30
0.0
 10
140.884563
 20
107.159805
 30
0.0
 10
140.884563
 20
102.271075
 30
0.0
 10
142.093927
 20
102.271075
 30
0.0
 10
161.674748
 20
102.271075
 30
0.0
 10
162.884666
 20
102.271075
 30
0.0
 10
162.884666
 20
107.159805
 30
0.0
 10
164.008043
 20
107.159805
 30
0.0
 10
164.644146
 20
107.159805
 30
0.0
 10
165.825952
 20
107.159805
 30
0.0
 10
165.825952
 20
112.159879
 30
0.0
 10
164.644146
 20
112.159879
 30
0.0
 10
164.008043
 20
112.159879
 30
0.0
 10
162.884666
 20
112.159879
 30
0.0
 10
162.884666
 20
117.271299
 30
0.0
 10
161.674748
 20
117.271299
 30
0.0
 10
142.093927
 20
117.271299
 30
0.0
 10
140.884563
 20
117.271299
 30
0.0
 10
140.884563
 20
117.271299
 30
0.0
  0
ENDSEC
  0
SECTION
  2
OBJECTS
  0
DICTIONARY
  5
C
330
0
100
AcDbDictionary
  3
ACAD_GROUP
350
D
  3
ACAD_MLINESTYLE
350
17
  0
DICTIONARY
  5
D
330
C
100
AcDbDictionary
  0
DICTIONARY
  5
1A
330
C
100
AcDbDictionary
  0
DICTIONARY
  5
17
330
C
100
AcDbDictionary
  3
STANDARD
350
18
  0
DICTIONARY
  5
19
330
C
100
AcDbDictionary
  0
ENDSEC
  0
EOF
