<?xml version="1.0" encoding="UTF-8" standalone="no"?>
<!-- Created with Inkscape (http://www.inkscape.org/) -->

<svg
   xmlns:dc="http://purl.org/dc/elements/1.1/"
   xmlns:cc="http://creativecommons.org/ns#"
   xmlns:rdf="http://www.w3.org/1999/02/22-rdf-syntax-ns#"
   xmlns:svg="http://www.w3.org/2000/svg"
   xmlns="http://www.w3.org/2000/svg"
   xmlns:sodipodi="http://sodipodi.sourceforge.net/DTD/sodipodi-0.dtd"
   xmlns:inkscape="http://www.inkscape.org/namespaces/inkscape"
   width="210mm"
   height="297mm"
   viewBox="0 0 744.09448819 1052.3622047"
   id="svg2"
   version="1.1"
   inkscape:version="0.91 r13725"
   sodipodi:docname="bluey_becon.svg">
  <defs
     id="defs4" />
  <sodipodi:namedview
     id="base"
     pagecolor="#ffffff"
     bordercolor="#666666"
     borderopacity="1.0"
     inkscape:pageopacity="0.0"
     inkscape:pageshadow="2"
     inkscape:zoom="0.98994949"
     inkscape:cx="361.2282"
     inkscape:cy="500.10222"
     inkscape:document-units="px"
     inkscape:current-layer="layer1"
     showgrid="true"
     inkscape:window-width="1366"
     inkscape:window-height="705"
     inkscape:window-x="-8"
     inkscape:window-y="-8"
     inkscape:window-maximized="1"
     showguides="false">
    <inkscape:grid
       type="xygrid"
       id="grid4136"
       units="mm"
       spacingx="1.7716536"
       spacingy="1.7716536"
       empspacing="10"
       dotted="false"
       enabled="true"
       visible="true" />
  </sodipodi:namedview>
  <metadata
     id="metadata7">
    <rdf:RDF>
      <cc:Work
         rdf:about="">
        <dc:format>image/svg+xml</dc:format>
        <dc:type
           rdf:resource="http://purl.org/dc/dcmitype/StillImage" />
        <dc:title></dc:title>
      </cc:Work>
    </rdf:RDF>
  </metadata>
  <g
     inkscape:label="Layer 1"
     inkscape:groupmode="layer"
     id="layer1">
    <path
       style="opacity:1;fill:none;fill-opacity:1;fill-rule:evenodd;stroke:#000000;stroke-width:0.89300001;stroke-linecap:round;stroke-linejoin:round;stroke-miterlimit:4;stroke-dasharray:none;stroke-opacity:1"
       d="m 499.19727,272.83398 0,18.11133 -4.12891,0 -2.25391,0 -4.1875,0 0,17.7168 4.1875,0 2.25391,0 4.12891,0 0,17.32227 4.28515,0 69.38086,0 4.28711,0 0,-17.32227 3.98047,0 2.25391,0 4.1875,0 0,-17.7168 -4.1875,0 -2.25391,0 -3.98047,0 0,-18.11133 -4.28711,0 -69.38086,0 -4.28515,0 z"
       id="rect4310"
       inkscape:connector-curvature="0" />
    <g
       id="g4177">
      <circle
         r="141.73224"
         cy="335.9913"
         cx="248.1778"
         id="path4152"
         style="opacity:1;fill:none;fill-opacity:1;fill-rule:evenodd;stroke:#000000;stroke-width:0.89300007;stroke-linecap:round;stroke-linejoin:round;stroke-miterlimit:4;stroke-dasharray:none;stroke-opacity:1" />
      <rect
         inkscape:transform-center-y="0.020553018"
         inkscape:transform-center-x="23.304735"
         transform="scale(-1,-1)"
         ry="1.3690943e-007"
         rx="4.18818"
         y="-344.79846"
         x="-127.3602"
         height="17.716448"
         width="10.629921"
         id="rect4157"
         style="opacity:1;fill:none;fill-opacity:1;fill-rule:evenodd;stroke:#000000;stroke-width:0.89300001;stroke-linecap:round;stroke-linejoin:round;stroke-miterlimit:4;stroke-dasharray:none;stroke-opacity:1" />
      <rect
         style="opacity:1;fill:none;fill-opacity:1;fill-rule:evenodd;stroke:#000000;stroke-width:0.89300001;stroke-linecap:round;stroke-linejoin:round;stroke-miterlimit:4;stroke-dasharray:none;stroke-opacity:1"
         id="rect4159"
         width="10.629921"
         height="17.716448"
         x="-379.64029"
         y="-344.66138"
         rx="4.18818"
         ry="1.3690943e-007"
         transform="scale(-1,-1)"
         inkscape:transform-center-x="23.304735"
         inkscape:transform-center-y="0.020562753" />
      <path
         inkscape:connector-curvature="0"
         id="path4216"
         d="m 193.59824,318.84248 a 17.716536,17.716536 0 0 0 -16.23828,10.65625 l -34.04101,0 0,4.1875 0,5.79688 0,4.18945 34.07812,0 a 17.716536,17.716536 0 0 0 16.20117,10.60351 17.716536,17.716536 0 0 0 17.7168,-17.71679 17.716536,17.716536 0 0 0 -17.7168,-17.7168 z"
         style="opacity:1;fill:none;fill-opacity:1;fill-rule:evenodd;stroke:#000000;stroke-width:0.89300001;stroke-linecap:round;stroke-linejoin:round;stroke-miterlimit:4;stroke-dasharray:none;stroke-opacity:1" />
      <rect
         style="opacity:1;fill:none;fill-opacity:1;fill-rule:evenodd;stroke:#000000;stroke-width:0.89300001;stroke-linecap:round;stroke-linejoin:round;stroke-miterlimit:4;stroke-dasharray:none;stroke-opacity:1"
         id="rect4261"
         width="10.629921"
         height="17.716448"
         x="286.55182"
         y="-391.47195"
         rx="4.18818"
         ry="1.3690943e-007"
         transform="matrix(-0.5,0.8660254,-0.8660254,-0.5,0,0)"
         inkscape:transform-center-x="11.634577"
         inkscape:transform-center-y="20.192764" />
      <rect
         inkscape:transform-center-y="20.192764"
         inkscape:transform-center-x="11.634577"
         transform="matrix(-0.5,0.8660254,-0.8660254,-0.5,0,0)"
         ry="1.3690943e-007"
         rx="4.18818"
         y="-391.41864"
         x="36.697868"
         height="17.716448"
         width="10.629921"
         id="rect4263"
         style="opacity:1;fill:none;fill-opacity:1;fill-rule:evenodd;stroke:#000000;stroke-width:0.89300001;stroke-linecap:round;stroke-linejoin:round;stroke-miterlimit:4;stroke-dasharray:none;stroke-opacity:1" />
      <rect
         style="opacity:1;fill:none;fill-opacity:1;fill-rule:evenodd;stroke:#000000;stroke-width:0.89300001;stroke-linecap:round;stroke-linejoin:round;stroke-miterlimit:4;stroke-dasharray:none;stroke-opacity:1"
         id="rect4265"
         width="10.629921"
         height="17.716448"
         x="-295.68884"
         y="38.085804"
         rx="4.18818"
         ry="1.3690943e-007"
         transform="matrix(-0.5,-0.8660254,0.8660254,-0.5,0,0)"
         inkscape:transform-center-x="11.670149"
         inkscape:transform-center-y="-20.172214" />
      <rect
         inkscape:transform-center-y="-20.172214"
         inkscape:transform-center-x="11.670149"
         transform="matrix(-0.5,-0.8660254,0.8660254,-0.5,0,0)"
         ry="1.3690943e-007"
         rx="4.18818"
         y="37.721043"
         x="-544.96399"
         height="17.716448"
         width="10.629921"
         id="rect4267"
         style="opacity:1;fill:none;fill-opacity:1;fill-rule:evenodd;stroke:#000000;stroke-width:0.89300001;stroke-linecap:round;stroke-linejoin:round;stroke-miterlimit:4;stroke-dasharray:none;stroke-opacity:1" />
      <ellipse
         style="opacity:1;fill:none;fill-opacity:1;fill-rule:evenodd;stroke:#000000;stroke-width:0.89300007;stroke-linecap:round;stroke-linejoin:round;stroke-miterlimit:4;stroke-dasharray:none;stroke-opacity:1"
         id="ellipse4345"
         cx="340.08466"
         cy="275.91473"
         rx="5.3149176"
         ry="5.3149171" />
      <ellipse
         ry="5.3149171"
         rx="5.3149176"
         cy="396.71942"
         cx="155.81218"
         id="ellipse4347"
         style="opacity:1;fill:none;fill-opacity:1;fill-rule:evenodd;stroke:#000000;stroke-width:0.89300007;stroke-linecap:round;stroke-linejoin:round;stroke-miterlimit:4;stroke-dasharray:none;stroke-opacity:1" />
    </g>
    <g
       id="g4166">
      <circle
         style="opacity:1;fill:none;fill-opacity:1;fill-rule:evenodd;stroke:#000000;stroke-width:0.89300007;stroke-linecap:round;stroke-linejoin:round;stroke-miterlimit:4;stroke-dasharray:none;stroke-opacity:1"
         id="circle4353"
         cx="248.1778"
         cy="663.99133"
         r="141.73224" />
      <rect
         style="opacity:1;fill:none;fill-opacity:1;fill-rule:evenodd;stroke:#000000;stroke-width:0.89300001;stroke-linecap:round;stroke-linejoin:round;stroke-miterlimit:4;stroke-dasharray:none;stroke-opacity:1"
         id="rect4355"
         width="10.629921"
         height="17.716448"
         x="-127.3602"
         y="-672.79846"
         rx="4.18818"
         ry="1.3690943e-007"
         transform="scale(-1,-1)"
         inkscape:transform-center-x="23.304735"
         inkscape:transform-center-y="0.020553018" />
      <rect
         inkscape:transform-center-y="0.020562753"
         inkscape:transform-center-x="23.304735"
         transform="scale(-1,-1)"
         ry="1.3690943e-007"
         rx="4.18818"
         y="-672.66138"
         x="-379.64029"
         height="17.716448"
         width="10.629921"
         id="rect4357"
         style="opacity:1;fill:none;fill-opacity:1;fill-rule:evenodd;stroke:#000000;stroke-width:0.89300001;stroke-linecap:round;stroke-linejoin:round;stroke-miterlimit:4;stroke-dasharray:none;stroke-opacity:1" />
      <rect
         inkscape:transform-center-y="20.192764"
         inkscape:transform-center-x="11.634577"
         transform="matrix(-0.5,0.8660254,-0.8660254,-0.5,0,0)"
         ry="1.3690943e-007"
         rx="4.18818"
         y="-555.47198"
         x="570.60895"
         height="17.716448"
         width="10.629921"
         id="rect4361"
         style="opacity:1;fill:none;fill-opacity:1;fill-rule:evenodd;stroke:#000000;stroke-width:0.89300001;stroke-linecap:round;stroke-linejoin:round;stroke-miterlimit:4;stroke-dasharray:none;stroke-opacity:1" />
      <rect
         style="opacity:1;fill:none;fill-opacity:1;fill-rule:evenodd;stroke:#000000;stroke-width:0.89300001;stroke-linecap:round;stroke-linejoin:round;stroke-miterlimit:4;stroke-dasharray:none;stroke-opacity:1"
         id="rect4363"
         width="10.629921"
         height="17.716448"
         x="320.75464"
         y="-555.41864"
         rx="4.18818"
         ry="1.3690943e-007"
         transform="matrix(-0.5,0.8660254,-0.8660254,-0.5,0,0)"
         inkscape:transform-center-x="11.634577"
         inkscape:transform-center-y="20.192764" />
      <rect
         inkscape:transform-center-y="-20.172214"
         inkscape:transform-center-x="11.670149"
         transform="matrix(-0.5,-0.8660254,0.8660254,-0.5,0,0)"
         ry="1.3690943e-007"
         rx="4.18818"
         y="-125.9142"
         x="-579.74597"
         height="17.716448"
         width="10.629921"
         id="rect4365"
         style="opacity:1;fill:none;fill-opacity:1;fill-rule:evenodd;stroke:#000000;stroke-width:0.89300001;stroke-linecap:round;stroke-linejoin:round;stroke-miterlimit:4;stroke-dasharray:none;stroke-opacity:1" />
      <rect
         style="opacity:1;fill:none;fill-opacity:1;fill-rule:evenodd;stroke:#000000;stroke-width:0.89300001;stroke-linecap:round;stroke-linejoin:round;stroke-miterlimit:4;stroke-dasharray:none;stroke-opacity:1"
         id="rect4367"
         width="10.629921"
         height="17.716448"
         x="-829.02112"
         y="-126.27896"
         rx="4.18818"
         ry="1.3690943e-007"
         transform="matrix(-0.5,-0.8660254,0.8660254,-0.5,0,0)"
         inkscape:transform-center-x="11.670149"
         inkscape:transform-center-y="-20.172214" />
      <ellipse
         ry="5.3149171"
         rx="5.3149176"
         cy="603.91473"
         cx="340.08466"
         id="ellipse4369"
         style="opacity:1;fill:none;fill-opacity:1;fill-rule:evenodd;stroke:#000000;stroke-width:0.89300007;stroke-linecap:round;stroke-linejoin:round;stroke-miterlimit:4;stroke-dasharray:none;stroke-opacity:1" />
      <ellipse
         style="opacity:1;fill:none;fill-opacity:1;fill-rule:evenodd;stroke:#000000;stroke-width:0.89300007;stroke-linecap:round;stroke-linejoin:round;stroke-miterlimit:4;stroke-dasharray:none;stroke-opacity:1"
         id="ellipse4371"
         cx="155.81218"
         cy="724.71942"
         rx="5.3149176"
         ry="5.3149171" />
    </g>
    <path
       inkscape:connector-curvature="0"
       id="path4156"
       d="m 499.19727,346.83398 0,18.11133 -4.12891,0 -2.25391,0 -4.1875,0 0,17.7168 4.1875,0 2.25391,0 4.12891,0 0,17.32227 4.28515,0 69.38086,0 4.28711,0 0,-17.32227 3.98047,0 2.25391,0 4.1875,0 0,-17.7168 -4.1875,0 -2.25391,0 -3.98047,0 0,-18.11133 -4.28711,0 -69.38086,0 -4.28515,0 z"
       style="opacity:1;fill:none;fill-opacity:1;fill-rule:evenodd;stroke:#000000;stroke-width:0.89300001;stroke-linecap:round;stroke-linejoin:round;stroke-miterlimit:4;stroke-dasharray:none;stroke-opacity:1" />
    <path
       style="opacity:1;fill:none;fill-opacity:1;fill-rule:evenodd;stroke:#000000;stroke-width:0.89300001;stroke-linecap:round;stroke-linejoin:round;stroke-miterlimit:4;stroke-dasharray:none;stroke-opacity:1"
       d="m 499.19727,418.83398 0,18.11133 -4.12891,0 -2.25391,0 -4.1875,0 0,17.7168 4.1875,0 2.25391,0 4.12891,0 0,17.32227 4.28515,0 69.38086,0 4.28711,0 0,-17.32227 3.98047,0 2.25391,0 4.1875,0 0,-17.7168 -4.1875,0 -2.25391,0 -3.98047,0 0,-18.11133 -4.28711,0 -69.38086,0 -4.28515,0 z"
       id="path4158"
       inkscape:connector-curvature="0" />
    <path
       inkscape:connector-curvature="0"
       id="path4160"
       d="m 499.19727,490.83398 0,18.11133 -4.12891,0 -2.25391,0 -4.1875,0 0,17.7168 4.1875,0 2.25391,0 4.12891,0 0,17.32227 4.28515,0 69.38086,0 4.28711,0 0,-17.32227 3.98047,0 2.25391,0 4.1875,0 0,-17.7168 -4.1875,0 -2.25391,0 -3.98047,0 0,-18.11133 -4.28711,0 -69.38086,0 -4.28515,0 z"
       style="opacity:1;fill:none;fill-opacity:1;fill-rule:evenodd;stroke:#000000;stroke-width:0.89300001;stroke-linecap:round;stroke-linejoin:round;stroke-miterlimit:4;stroke-dasharray:none;stroke-opacity:1" />
    <path
       style="opacity:1;fill:none;fill-opacity:1;fill-rule:evenodd;stroke:#000000;stroke-width:0.89300001;stroke-linecap:round;stroke-linejoin:round;stroke-miterlimit:4;stroke-dasharray:none;stroke-opacity:1"
       d="m 499.19727,564.83398 0,18.11133 -4.12891,0 -2.25391,0 -4.1875,0 0,17.7168 4.1875,0 2.25391,0 4.12891,0 0,17.32227 4.28515,0 69.38086,0 4.28711,0 0,-17.32227 3.98047,0 2.25391,0 4.1875,0 0,-17.7168 -4.1875,0 -2.25391,0 -3.98047,0 0,-18.11133 -4.28711,0 -69.38086,0 -4.28515,0 z"
       id="path4162"
       inkscape:connector-curvature="0" />
    <path
       inkscape:connector-curvature="0"
       id="path4164"
       d="m 499.19727,636.83398 0,18.11133 -4.12891,0 -2.25391,0 -4.1875,0 0,17.7168 4.1875,0 2.25391,0 4.12891,0 0,17.32227 4.28515,0 69.38086,0 4.28711,0 0,-17.32227 3.98047,0 2.25391,0 4.1875,0 0,-17.7168 -4.1875,0 -2.25391,0 -3.98047,0 0,-18.11133 -4.28711,0 -69.38086,0 -4.28515,0 z"
       style="opacity:1;fill:none;fill-opacity:1;fill-rule:evenodd;stroke:#000000;stroke-width:0.89300001;stroke-linecap:round;stroke-linejoin:round;stroke-miterlimit:4;stroke-dasharray:none;stroke-opacity:1" />
  </g>
</svg>
